<svg width="21" height="20" viewBox="0 0 21 20" fill="none" xmlns="http://www.w3.org/2000/svg">
<g clip-path="url(#clip0_102_455)">
<path d="M2.098 17.902C2.44623 18.2503 2.85967 18.5266 3.31471 18.7152C3.76974 18.9037 4.25746 19.0007 4.75 19.0007M2.098 17.902C2.80126 18.6053 3.75544 19.0007 4.75 19.0007M2.098 17.902C1.39474 17.1987 1 16.2446 1 15.25V2.125C1 1.504 1.504 1 2.125 1H7.375C7.996 1 8.5 1.504 8.5 2.125V6.197M4.75 19.0007C5.24254 19.0007 5.73026 18.9037 6.18529 18.7152C6.64033 18.5266 7.05377 18.2503 7.402 17.902M4.75 19.0007C5.74456 19.0007 6.69874 18.6053 7.402 17.902M4.75 19.0007L17.875 19C18.496 19 19 18.496 19 17.875V12.625C19 12.004 18.496 11.5 17.875 11.5H13.803M7.402 17.902L13.803 11.5M7.402 17.902C8.10526 17.1987 8.5 16.2446 8.5 15.25V6.197M13.803 11.5L16.682 8.62C17.122 8.182 17.122 7.47 16.682 7.03L12.97 3.317C12.53 2.878 11.818 2.878 11.38 3.317L8.5 6.197M4.75 15.25H4.758V15.258H4.75V15.25Z" stroke="current" stroke-width="1.5" stroke-linecap="round" stroke-linejoin="round"/>
</g>
<defs>
<clipPath id="clip0_102_455">
<rect width="20" height="20" fill="white" transform="translate(0.5)"/>
</clipPath>
</defs>
</svg>
