<svg width="152" height="33" viewBox="0 0 152 33" fill="none" xmlns="http://www.w3.org/2000/svg">
<path d="M17.5781 20.5703C17.6302 20.6484 17.6172 20.9089 17.5391 21.3516C17.487 21.7943 17.3958 22.276 17.2656 22.7969C17.1615 23.3177 17.0443 23.8125 16.9141 24.2812C16.8099 24.724 16.7188 24.9844 16.6406 25.0625H16.25C16.1719 25.0625 16.0938 25.0495 16.0156 25.0234C16.1458 26.2734 16.25 27.276 16.3281 28.0312C16.4062 28.7865 16.4453 29.2031 16.4453 29.2812C16.4453 29.4635 16.3542 29.724 16.1719 30.0625C16.0156 30.401 15.8333 30.7135 15.625 31C15.4167 31.2865 15.1953 31.5078 14.9609 31.6641C14.7526 31.8464 14.6094 31.8594 14.5312 31.7031C14.401 31.4688 14.1276 30.7656 13.7109 29.5938C13.2943 28.4219 12.8255 26.8203 12.3047 24.7891C11.7839 24.737 11.237 24.6849 10.6641 24.6328C10.1172 24.5807 9.55729 24.5286 8.98438 24.4766C8.41146 24.4245 7.83854 24.3594 7.26562 24.2812C6.71875 24.1771 6.1849 24.0859 5.66406 24.0078C5.40365 25.1536 5.14323 26.2344 4.88281 27.25C4.64844 28.2656 4.41406 29.151 4.17969 29.9062C3.97135 30.6615 3.78906 31.2604 3.63281 31.7031C3.47656 32.1458 3.35938 32.3672 3.28125 32.3672C3.07292 32.3672 2.86458 32.237 2.65625 31.9766C2.44792 31.7161 2.2526 31.4036 2.07031 31.0391C1.91406 30.6745 1.78385 30.2969 1.67969 29.9062C1.57552 29.5156 1.52344 29.1901 1.52344 28.9297C1.57552 28.3307 1.64062 27.7057 1.71875 27.0547C1.82292 26.4036 1.90104 25.8047 1.95312 25.2578C2.03125 24.6068 2.10938 23.9688 2.1875 23.3438H2.03125C1.92708 23.2917 1.78385 23.1745 1.60156 22.9922C1.41927 22.8099 1.23698 22.6276 1.05469 22.4453C0.872396 22.237 0.716146 22.0417 0.585938 21.8594C0.455729 21.651 0.390625 21.4948 0.390625 21.3906C0.390625 21.3385 0.572917 21.2865 0.9375 21.2344C1.32812 21.1823 1.83594 21.1302 2.46094 21.0781C2.66927 19.5156 2.89062 17.888 3.125 16.1953C3.35938 14.5026 3.59375 12.9141 3.82812 11.4297C4.0625 9.94531 4.28385 8.65625 4.49219 7.5625C4.72656 6.44271 4.92188 5.67448 5.07812 5.25781C5.33854 4.55469 5.79427 3.92969 6.44531 3.38281C7.09635 2.8099 7.77344 2.34115 8.47656 1.97656C9.20573 1.58594 9.89583 1.28646 10.5469 1.07812C11.1979 0.869792 11.6797 0.765625 11.9922 0.765625C12.1224 0.765625 12.2656 1.0651 12.4219 1.66406C12.6042 2.23698 12.7865 3.01823 12.9688 4.00781C13.1771 4.9974 13.3854 6.15625 13.5938 7.48438C13.8281 8.78646 14.0495 10.1667 14.2578 11.625C14.4661 13.0833 14.6615 14.5807 14.8438 16.1172C15.0521 17.6276 15.2474 19.0729 15.4297 20.4531C16.7318 20.4531 17.4479 20.4922 17.5781 20.5703ZM6.40625 20.8047C7.23958 20.7526 8.07292 20.7135 8.90625 20.6875C9.73958 20.6615 10.5599 20.6224 11.3672 20.5703C11.1589 19.5547 10.9245 18.4219 10.6641 17.1719C10.4557 16.1042 10.2083 14.8542 9.92188 13.4219C9.63542 11.9896 9.34896 10.4141 9.0625 8.69531C8.75 10.2318 8.4375 11.7292 8.125 13.1875C7.8125 14.6198 7.52604 15.9089 7.26562 17.0547C6.97917 18.3828 6.69271 19.6328 6.40625 20.8047ZM28.9062 6.70312C28.4635 6.72917 28.0208 6.74219 27.5781 6.74219C27.1615 6.71615 26.7708 6.70312 26.4062 6.70312C25.9896 6.70312 25.599 6.6901 25.2344 6.66406C25.2865 8.04427 25.2995 9.65885 25.2734 11.5078C25.2734 13.3307 25.2474 15.2057 25.1953 17.1328C25.1693 19.0599 25.1172 20.9479 25.0391 22.7969C24.987 24.6198 24.9219 26.2344 24.8438 27.6406C25.8333 27.6146 26.7057 27.6146 27.4609 27.6406C28.2161 27.6667 28.6198 27.7057 28.6719 27.7578C28.724 27.8359 28.724 28.0964 28.6719 28.5391C28.6198 28.9557 28.5417 29.4245 28.4375 29.9453C28.3333 30.4401 28.2292 30.8958 28.125 31.3125C28.0208 31.7552 27.9427 32.0286 27.8906 32.1328C27.1615 32.1589 26.4844 32.1589 25.8594 32.1328C25.2604 32.1328 24.7396 32.1068 24.2969 32.0547C23.776 32.0286 23.3073 31.9896 22.8906 31.9375C22.474 31.8594 22.0312 31.7682 21.5625 31.6641C21.1719 31.5599 20.7161 31.4297 20.1953 31.2734C19.7005 31.1172 19.1927 30.9219 18.6719 30.6875C18.5677 30.6354 18.4375 30.4922 18.2812 30.2578C18.151 30.0234 18.0078 29.776 17.8516 29.5156C17.7214 29.2292 17.6172 28.9557 17.5391 28.6953C17.4349 28.4349 17.3828 28.2526 17.3828 28.1484C17.3828 28.1224 17.5 28.0964 17.7344 28.0703C17.9688 28.0182 18.2943 27.9792 18.7109 27.9531C19.1276 27.901 19.5964 27.862 20.1172 27.8359C20.638 27.7839 21.1979 27.7448 21.7969 27.7188C21.7448 26.9635 21.6667 25.974 21.5625 24.75C21.4844 23.5 21.3932 22.1589 21.2891 20.7266C21.2109 19.2682 21.1198 17.7839 21.0156 16.2734C20.9375 14.737 20.8724 13.3177 20.8203 12.0156C20.7682 10.6875 20.7422 9.52865 20.7422 8.53906C20.7422 7.54948 20.7812 6.85938 20.8594 6.46875C20.8854 6.41667 20.8984 6.3776 20.8984 6.35156C20.8984 6.29948 20.9115 6.2474 20.9375 6.19531L19.8438 5.92188C19.5312 5.84375 19.1927 5.7526 18.8281 5.64844C18.4635 5.54427 18.099 5.42708 17.7344 5.29688C17.6302 5.24479 17.5 5.10156 17.3438 4.86719C17.1615 4.63281 16.9922 4.3724 16.8359 4.08594C16.6536 3.79948 16.5104 3.53906 16.4062 3.30469C16.276 3.04427 16.2109 2.86198 16.2109 2.75781C16.2109 2.70573 16.5495 2.65365 17.2266 2.60156C17.8776 2.52344 18.6979 2.45833 19.6875 2.40625C20.6771 2.35417 21.7448 2.3151 22.8906 2.28906C24.0625 2.26302 25.1432 2.25 26.1328 2.25C27.1484 2.25 27.9948 2.26302 28.6719 2.28906C29.375 2.28906 29.7526 2.3151 29.8047 2.36719C29.8828 2.44531 29.8828 2.70573 29.8047 3.14844C29.7526 3.5651 29.6615 4.03385 29.5312 4.55469C29.4271 5.04948 29.3099 5.51823 29.1797 5.96094C29.0755 6.3776 28.9844 6.625 28.9062 6.70312ZM42.1094 18.8125C42.1094 19.151 42.0964 19.6849 42.0703 20.4141C42.0703 21.1432 42.0573 21.9635 42.0312 22.875C42.0052 23.7865 41.9661 24.737 41.9141 25.7266C41.888 26.6901 41.8359 27.5755 41.7578 28.3828C41.6797 29.1641 41.5885 29.8151 41.4844 30.3359C41.4062 30.8568 41.3021 31.1172 41.1719 31.1172C40.7812 31.1172 40.4036 30.8438 40.0391 30.2969C39.7005 29.724 39.349 29.112 38.9844 28.4609C38.9062 28.3047 38.8151 27.849 38.7109 27.0938C38.6328 26.3125 38.5417 25.3359 38.4375 24.1641C38.3594 22.9922 38.2812 21.6901 38.2031 20.2578C38.125 18.8255 38.0469 17.3672 37.9688 15.8828C37.8906 14.3984 37.8255 12.9401 37.7734 11.5078C37.7474 10.0755 37.7214 8.78646 37.6953 7.64062C37.6693 6.49479 37.6693 5.54427 37.6953 4.78906C37.7214 4.00781 37.7734 3.55208 37.8516 3.42188C37.9557 3.23958 38.3203 3.10938 38.9453 3.03125C39.5703 2.92708 40.3255 2.875 41.2109 2.875C42.1224 2.875 43.099 2.90104 44.1406 2.95312C45.1823 3.00521 46.1458 3.08333 47.0312 3.1875C47.9427 3.26562 48.6979 3.35677 49.2969 3.46094C49.9219 3.5651 50.2734 3.65625 50.3516 3.73438C50.4557 3.83854 50.4688 4.125 50.3906 4.59375C50.3385 5.03646 50.2344 5.53125 50.0781 6.07812C49.9479 6.59896 49.7786 7.09375 49.5703 7.5625C49.388 8.03125 49.2318 8.33073 49.1016 8.46094C48.9714 8.59115 48.3594 8.57812 47.2656 8.42188C46.1979 8.26562 44.4792 8.08333 42.1094 7.875V14.3984C43.9323 14.5547 45.3516 14.6979 46.3672 14.8281C47.4089 14.9583 47.9557 15.0495 48.0078 15.1016C48.112 15.2057 48.151 15.4141 48.125 15.7266C48.099 16.0391 48.0339 16.3776 47.9297 16.7422C47.8255 17.0807 47.6953 17.4062 47.5391 17.7188C47.3828 18.0052 47.2266 18.2005 47.0703 18.3047C46.9922 18.3568 46.5234 18.4349 45.6641 18.5391C44.8307 18.6432 43.6458 18.7344 42.1094 18.8125ZM58.75 9.63281C58.9323 9.78906 59.1016 10.0885 59.2578 10.5312C59.4401 10.974 59.5964 11.5078 59.7266 12.1328C59.8568 12.7578 59.974 13.4349 60.0781 14.1641C60.1823 14.8932 60.2734 15.6094 60.3516 16.3125C60.4297 17.0156 60.4818 17.6797 60.5078 18.3047C60.5599 18.9036 60.599 19.3984 60.625 19.7891C60.651 20.2578 60.6641 20.7526 60.6641 21.2734C60.6901 21.7682 60.6901 22.25 60.6641 22.7188C60.6641 23.1615 60.638 23.5651 60.5859 23.9297C60.5599 24.2943 60.5078 24.5677 60.4297 24.75C60.2734 25.1406 60 25.4141 59.6094 25.5703C59.2448 25.7005 58.8281 25.7917 58.3594 25.8438C58.125 25.8698 57.7214 25.8828 57.1484 25.8828C56.6016 25.8568 56.0026 25.8307 55.3516 25.8047C54.7266 25.7526 54.1276 25.7005 53.5547 25.6484C52.9818 25.5964 52.5521 25.5443 52.2656 25.4922C51.6927 25.362 51.276 25.1927 51.0156 24.9844C50.7812 24.776 50.5469 24.4766 50.3125 24.0859C50.2344 23.9297 50.1693 23.5391 50.1172 22.9141C50.0651 22.263 50.026 21.4948 50 20.6094C50 19.6979 50.013 18.7214 50.0391 17.6797C50.0651 16.638 50.1042 15.6484 50.1562 14.7109C50.2344 13.7734 50.3125 12.9531 50.3906 12.25C50.4948 11.5469 50.625 11.0781 50.7812 10.8438C51.0417 10.4792 51.4844 10.1406 52.1094 9.82812C52.7604 9.51562 53.3464 9.26823 53.8672 9.08594C54.1276 9.00781 54.4661 8.95573 54.8828 8.92969C55.3255 8.8776 55.7812 8.8776 56.25 8.92969C56.7448 8.95573 57.2135 9.03385 57.6562 9.16406C58.099 9.26823 58.4635 9.42448 58.75 9.63281ZM56.5625 21.7422C56.6146 21.638 56.6667 21.3255 56.7188 20.8047C56.7969 20.2578 56.849 19.6068 56.875 18.8516C56.9271 18.0964 56.9531 17.2891 56.9531 16.4297C56.9792 15.5703 56.9922 14.776 56.9922 14.0469C56.9922 13.3177 56.9661 12.7057 56.9141 12.2109C56.862 11.6901 56.7969 11.3906 56.7188 11.3125C56.5885 11.2083 56.3932 11.1693 56.1328 11.1953C55.8984 11.1953 55.651 11.2344 55.3906 11.3125C55.1302 11.3646 54.8958 11.4427 54.6875 11.5469C54.4792 11.625 54.3359 11.7031 54.2578 11.7812C53.9193 12.0677 53.737 12.5365 53.7109 13.1875C53.7109 13.3698 53.6849 13.8906 53.6328 14.75C53.6068 15.5833 53.5938 16.4948 53.5938 17.4844C53.5938 18.4479 53.6068 19.3464 53.6328 20.1797C53.6849 21.013 53.776 21.5208 53.9062 21.7031C54.0365 21.8854 54.2188 22.0286 54.4531 22.1328C54.7135 22.2109 54.974 22.25 55.2344 22.25C55.5208 22.25 55.7812 22.2109 56.0156 22.1328C56.276 22.0286 56.4583 21.8984 56.5625 21.7422ZM71.0938 10.9219C71.1198 11 71.1198 11.2214 71.0938 11.5859C71.0677 11.9245 71.0156 12.3151 70.9375 12.7578C70.8854 13.1745 70.8203 13.5651 70.7422 13.9297C70.6641 14.2682 70.599 14.4766 70.5469 14.5547C70.2865 14.5807 70.026 14.5938 69.7656 14.5938C69.5052 14.5677 69.2578 14.5547 69.0234 14.5547H68.2031C68.1771 16.2734 68.138 17.9792 68.0859 19.6719C68.0339 21.3646 67.9688 22.888 67.8906 24.2422C67.8125 25.5703 67.7214 26.651 67.6172 27.4844C67.5391 28.3177 67.4609 28.7474 67.3828 28.7734C67.2005 28.7995 66.9922 28.7214 66.7578 28.5391C66.5234 28.3568 66.2891 28.1354 66.0547 27.875C65.8464 27.5885 65.651 27.3021 65.4688 27.0156C65.3125 26.7031 65.2214 26.4297 65.1953 26.1953C65.0651 24.6068 64.9479 23.0964 64.8438 21.6641C64.7396 20.2057 64.6615 18.9167 64.6094 17.7969C64.5052 16.4948 64.4401 15.2839 64.4141 14.1641C64.1276 14.138 63.8411 14.099 63.5547 14.0469C63.2943 13.9948 63.0208 13.9427 62.7344 13.8906C62.474 13.8385 62.2005 13.7865 61.9141 13.7344C61.862 13.6823 61.7969 13.5651 61.7188 13.3828C61.6406 13.1745 61.5625 12.9531 61.4844 12.7188C61.4323 12.4844 61.3802 12.263 61.3281 12.0547C61.276 11.8203 61.25 11.651 61.25 11.5469C61.25 11.4688 61.5365 11.3906 62.1094 11.3125C62.7083 11.2344 63.4375 11.1693 64.2969 11.1172C64.2448 9.73698 64.2057 8.53906 64.1797 7.52344C64.1797 6.48177 64.2188 5.77865 64.2969 5.41406C64.375 4.91927 64.5833 4.45052 64.9219 4.00781C65.2865 3.53906 65.6641 3.13542 66.0547 2.79688C66.4714 2.45833 66.849 2.21094 67.1875 2.05469C67.5521 1.8724 67.7865 1.82031 67.8906 1.89844C67.9688 1.95052 68.0339 2.22396 68.0859 2.71875C68.138 3.1875 68.1771 3.82552 68.2031 4.63281C68.2292 5.4401 68.2422 6.39062 68.2422 7.48438C68.2422 8.55208 68.2422 9.6849 68.2422 10.8828C69.0234 10.8307 69.6875 10.8177 70.2344 10.8438C70.7812 10.8438 71.0677 10.8698 71.0938 10.9219ZM80.8594 9.63281C81.0417 9.78906 81.2109 10.0885 81.3672 10.5312C81.5495 10.974 81.7057 11.5078 81.8359 12.1328C81.9661 12.7578 82.0833 13.4349 82.1875 14.1641C82.2917 14.8932 82.3828 15.6094 82.4609 16.3125C82.5391 17.0156 82.5911 17.6797 82.6172 18.3047C82.6693 18.9036 82.7083 19.3984 82.7344 19.7891C82.7604 20.2578 82.7734 20.7526 82.7734 21.2734C82.7995 21.7682 82.7995 22.25 82.7734 22.7188C82.7734 23.1615 82.7474 23.5651 82.6953 23.9297C82.6693 24.2943 82.6172 24.5677 82.5391 24.75C82.3828 25.1406 82.1094 25.4141 81.7188 25.5703C81.3542 25.7005 80.9375 25.7917 80.4688 25.8438C80.2344 25.8698 79.8307 25.8828 79.2578 25.8828C78.7109 25.8568 78.112 25.8307 77.4609 25.8047C76.8359 25.7526 76.237 25.7005 75.6641 25.6484C75.0911 25.5964 74.6615 25.5443 74.375 25.4922C73.8021 25.362 73.3854 25.1927 73.125 24.9844C72.8906 24.776 72.6562 24.4766 72.4219 24.0859C72.3438 23.9297 72.2786 23.5391 72.2266 22.9141C72.1745 22.263 72.1354 21.4948 72.1094 20.6094C72.1094 19.6979 72.1224 18.7214 72.1484 17.6797C72.1745 16.638 72.2135 15.6484 72.2656 14.7109C72.3438 13.7734 72.4219 12.9531 72.5 12.25C72.6042 11.5469 72.7344 11.0781 72.8906 10.8438C73.151 10.4792 73.5938 10.1406 74.2188 9.82812C74.8698 9.51562 75.4557 9.26823 75.9766 9.08594C76.237 9.00781 76.5755 8.95573 76.9922 8.92969C77.4349 8.8776 77.8906 8.8776 78.3594 8.92969C78.8542 8.95573 79.3229 9.03385 79.7656 9.16406C80.2083 9.26823 80.5729 9.42448 80.8594 9.63281ZM78.6719 21.7422C78.724 21.638 78.776 21.3255 78.8281 20.8047C78.9062 20.2578 78.9583 19.6068 78.9844 18.8516C79.0365 18.0964 79.0625 17.2891 79.0625 16.4297C79.0885 15.5703 79.1016 14.776 79.1016 14.0469C79.1016 13.3177 79.0755 12.7057 79.0234 12.2109C78.9714 11.6901 78.9062 11.3906 78.8281 11.3125C78.6979 11.2083 78.5026 11.1693 78.2422 11.1953C78.0078 11.1953 77.7604 11.2344 77.5 11.3125C77.2396 11.3646 77.0052 11.4427 76.7969 11.5469C76.5885 11.625 76.4453 11.7031 76.3672 11.7812C76.0286 12.0677 75.8464 12.5365 75.8203 13.1875C75.8203 13.3698 75.7943 13.8906 75.7422 14.75C75.7161 15.5833 75.7031 16.4948 75.7031 17.4844C75.7031 18.4479 75.7161 19.3464 75.7422 20.1797C75.7943 21.013 75.8854 21.5208 76.0156 21.7031C76.1458 21.8854 76.3281 22.0286 76.5625 22.1328C76.8229 22.2109 77.0833 22.25 77.3438 22.25C77.6302 22.25 77.8906 22.2109 78.125 22.1328C78.3854 22.0286 78.5677 21.8984 78.6719 21.7422ZM87.8125 19.7109C88.2292 19.5547 88.6979 19.3854 89.2188 19.2031C89.7656 18.9948 90.2865 18.8125 90.7812 18.6562C91.276 18.474 91.7188 18.3177 92.1094 18.1875C92.5 18.0573 92.7865 17.9531 92.9688 17.875C92.9427 17.5885 92.9036 17.263 92.8516 16.8984C92.8255 16.5078 92.7865 16.1432 92.7344 15.8047C92.6823 15.4401 92.6172 15.1276 92.5391 14.8672C92.4609 14.6068 92.3828 14.4505 92.3047 14.3984C92.0964 14.3203 91.7448 14.2552 91.25 14.2031C90.7812 14.125 90.2865 14.138 89.7656 14.2422C89.2708 14.3464 88.8151 14.5417 88.3984 14.8281C87.9818 15.1146 87.7474 15.5703 87.6953 16.1953C87.6432 16.612 87.6302 17.1328 87.6562 17.7578C87.6823 18.3828 87.7344 19.0339 87.8125 19.7109ZM96.2891 20.3359C96.263 20.388 95.9505 20.4922 95.3516 20.6484C94.7526 20.8047 94.0365 20.974 93.2031 21.1562C92.3698 21.3125 91.4844 21.4818 90.5469 21.6641C89.6094 21.8203 88.8021 21.9505 88.125 22.0547C88.2552 23.0964 88.4115 24.0339 88.5938 24.8672C88.776 25.6745 88.9323 26.1823 89.0625 26.3906C89.1927 26.5729 89.362 26.7422 89.5703 26.8984C89.7526 27.0286 89.974 27.1589 90.2344 27.2891C90.5208 27.3932 90.8594 27.4714 91.25 27.5234C91.5365 27.6016 91.8099 27.4974 92.0703 27.2109C92.2786 26.9505 92.4609 26.4948 92.6172 25.8438C92.7995 25.1927 92.8906 24.1641 92.8906 22.7578C93.6979 22.6276 94.3229 22.5495 94.7656 22.5234C95.2344 22.4974 95.5729 22.4974 95.7812 22.5234C96.0417 22.5495 96.1979 22.5885 96.25 22.6406C96.276 22.7188 96.276 22.9141 96.25 23.2266C96.224 23.5391 96.1589 23.9297 96.0547 24.3984C95.9766 24.8411 95.8724 25.3359 95.7422 25.8828C95.638 26.4036 95.5078 26.9115 95.3516 27.4062C95.1953 27.875 95.026 28.3047 94.8438 28.6953C94.6615 29.0599 94.4661 29.3203 94.2578 29.4766C93.6328 29.9453 92.8516 30.1797 91.9141 30.1797C90.9766 30.1536 90.0521 30.0234 89.1406 29.7891C88.2292 29.5286 87.4089 29.2292 86.6797 28.8906C85.9505 28.526 85.4948 28.2266 85.3125 27.9922C85.1823 27.8359 85.0651 27.4453 84.9609 26.8203C84.8568 26.1693 84.7656 25.388 84.6875 24.4766C84.6354 23.5651 84.5964 22.5625 84.5703 21.4688C84.5443 20.375 84.5573 19.3073 84.6094 18.2656C84.6875 17.224 84.7917 16.2604 84.9219 15.375C85.0781 14.4896 85.2865 13.7734 85.5469 13.2266C85.9375 12.4453 86.5755 11.8073 87.4609 11.3125C88.3464 10.8177 89.2839 10.4792 90.2734 10.2969C91.263 10.1146 92.2005 10.0885 93.0859 10.2188C93.9974 10.349 94.6745 10.6354 95.1172 11.0781C95.3776 11.3385 95.612 11.8594 95.8203 12.6406C96.0286 13.3958 96.1589 14.3203 96.2109 15.4141C96.2109 15.5182 96.224 15.8177 96.25 16.3125C96.276 16.8073 96.2891 17.3411 96.2891 17.9141C96.3151 18.4609 96.3281 18.9818 96.3281 19.4766C96.3281 19.9714 96.3151 20.2578 96.2891 20.3359ZM109.727 5.14062C109.805 5.76562 109.831 7.01562 109.805 8.89062C109.805 9.69792 109.779 10.6745 109.727 11.8203C109.701 12.9661 109.648 14.3464 109.57 15.9609C109.492 17.5495 109.388 19.3984 109.258 21.5078C109.154 23.5911 109.01 25.9609 108.828 28.6172C108.776 28.8776 108.659 29.1641 108.477 29.4766C108.32 29.7891 108.138 30.0755 107.93 30.3359C107.721 30.5964 107.5 30.8177 107.266 31C107.031 31.1562 106.823 31.2083 106.641 31.1562C106.589 31.1302 106.523 30.9219 106.445 30.5312C106.393 30.1406 106.341 29.5938 106.289 28.8906C105.117 29.4115 104.01 29.763 102.969 29.9453C101.927 30.1276 101.081 30.0104 100.43 29.5938C100.169 29.4375 99.9089 29.1641 99.6484 28.7734C99.4141 28.3568 99.1927 27.875 98.9844 27.3281C98.776 26.7812 98.6068 26.2083 98.4766 25.6094C98.3464 24.9844 98.2812 24.3984 98.2812 23.8516C98.2812 23.4609 98.3073 22.9401 98.3594 22.2891C98.4115 21.638 98.4766 20.9349 98.5547 20.1797C98.6328 19.3984 98.724 18.6172 98.8281 17.8359C98.9323 17.0286 99.0365 16.2865 99.1406 15.6094C99.2448 14.9323 99.3359 14.3594 99.4141 13.8906C99.4922 13.4219 99.5573 13.1354 99.6094 13.0312C99.6615 12.7188 99.7526 12.4583 99.8828 12.25C100.039 12.0417 100.169 11.8854 100.273 11.7812C100.534 11.5729 100.911 11.4167 101.406 11.3125C101.927 11.2083 102.461 11.1432 103.008 11.1172C103.581 11.0911 104.115 11.1042 104.609 11.1562C105.104 11.1823 105.469 11.2344 105.703 11.3125H105.781C105.729 8.08333 105.729 5.59635 105.781 3.85156C105.833 2.10677 105.938 1.16927 106.094 1.03906C106.198 0.960938 106.432 1.02604 106.797 1.23438C107.161 1.44271 107.539 1.74219 107.93 2.13281C108.346 2.52344 108.724 2.99219 109.062 3.53906C109.427 4.0599 109.648 4.59375 109.727 5.14062ZM103.789 27.0156C104.154 26.9375 104.479 26.8464 104.766 26.7422C105.078 26.612 105.339 26.4948 105.547 26.3906C105.781 26.2865 105.977 26.1562 106.133 26C106.107 25.3229 106.081 24.5677 106.055 23.7344C106.029 22.875 106.003 21.9896 105.977 21.0781C105.951 20.1667 105.924 19.2422 105.898 18.3047C105.872 17.3411 105.846 16.4167 105.82 15.5312C105.82 15.2448 105.768 14.9974 105.664 14.7891C105.586 14.5807 105.482 14.4115 105.352 14.2812C105.273 14.2292 105.117 14.1641 104.883 14.0859C104.648 13.9818 104.375 13.9036 104.062 13.8516C103.776 13.7734 103.49 13.7344 103.203 13.7344C102.943 13.7344 102.76 13.7865 102.656 13.8906C102.604 13.9167 102.552 14.1771 102.5 14.6719C102.474 15.1406 102.435 15.7396 102.383 16.4688C102.357 17.1719 102.318 17.9401 102.266 18.7734C102.24 19.6068 102.214 20.388 102.188 21.1172C102.161 21.8464 102.135 22.4714 102.109 22.9922C102.083 23.513 102.07 23.7995 102.07 23.8516C102.07 24.2943 102.122 24.7109 102.227 25.1016C102.357 25.4922 102.513 25.8438 102.695 26.1562C102.878 26.4427 103.073 26.6771 103.281 26.8594C103.49 27.0156 103.659 27.0677 103.789 27.0156ZM115.938 14.2031C115.99 14.3333 116.016 14.75 116.016 15.4531C116.042 16.1302 116.042 16.9635 116.016 17.9531C116.016 18.9167 115.99 19.9583 115.938 21.0781C115.885 22.1719 115.82 23.2135 115.742 24.2031C115.69 25.1667 115.625 26 115.547 26.7031C115.469 27.3802 115.391 27.7839 115.312 27.9141C115.078 28.2786 114.727 28.513 114.258 28.6172C113.789 28.6953 113.451 28.7083 113.242 28.6562C113.138 28.6562 113.021 28.3568 112.891 27.7578C112.786 27.1589 112.682 26.4036 112.578 25.4922C112.474 24.5807 112.383 23.5911 112.305 22.5234C112.227 21.4557 112.161 20.4401 112.109 19.4766C112.057 18.487 112.031 17.6276 112.031 16.8984C112.031 16.1693 112.057 15.7005 112.109 15.4922C112.188 15.1536 112.409 14.8542 112.773 14.5938C113.164 14.3333 113.568 14.138 113.984 14.0078C114.427 13.8776 114.831 13.8255 115.195 13.8516C115.586 13.8516 115.833 13.9688 115.938 14.2031ZM116.133 7.875C116.237 8.08333 116.276 8.36979 116.25 8.73438C116.25 9.09896 116.211 9.47656 116.133 9.86719C116.055 10.2578 115.951 10.6354 115.82 11C115.69 11.3646 115.56 11.651 115.43 11.8594C115.169 12.224 114.779 12.4583 114.258 12.5625C113.763 12.6406 113.398 12.6536 113.164 12.6016C112.982 12.5755 112.799 12.4583 112.617 12.25C112.435 12.0156 112.279 11.7422 112.148 11.4297C112.018 11.0911 111.927 10.7266 111.875 10.3359C111.823 9.94531 111.836 9.58073 111.914 9.24219C111.992 8.90365 112.24 8.60417 112.656 8.34375C113.073 8.05729 113.516 7.84896 113.984 7.71875C114.453 7.5625 114.896 7.4974 115.312 7.52344C115.729 7.52344 116.003 7.64062 116.133 7.875ZM127.305 10.9219C127.331 11 127.331 11.2214 127.305 11.5859C127.279 11.9245 127.227 12.3151 127.148 12.7578C127.096 13.1745 127.031 13.5651 126.953 13.9297C126.875 14.2682 126.81 14.4766 126.758 14.5547C126.497 14.5807 126.237 14.5938 125.977 14.5938C125.716 14.5677 125.469 14.5547 125.234 14.5547H124.414C124.388 16.2734 124.349 17.9792 124.297 19.6719C124.245 21.3646 124.18 22.888 124.102 24.2422C124.023 25.5703 123.932 26.651 123.828 27.4844C123.75 28.3177 123.672 28.7474 123.594 28.7734C123.411 28.7995 123.203 28.7214 122.969 28.5391C122.734 28.3568 122.5 28.1354 122.266 27.875C122.057 27.5885 121.862 27.3021 121.68 27.0156C121.523 26.7031 121.432 26.4297 121.406 26.1953C121.276 24.6068 121.159 23.0964 121.055 21.6641C120.951 20.2057 120.872 18.9167 120.82 17.7969C120.716 16.4948 120.651 15.2839 120.625 14.1641C120.339 14.138 120.052 14.099 119.766 14.0469C119.505 13.9948 119.232 13.9427 118.945 13.8906C118.685 13.8385 118.411 13.7865 118.125 13.7344C118.073 13.6823 118.008 13.5651 117.93 13.3828C117.852 13.1745 117.773 12.9531 117.695 12.7188C117.643 12.4844 117.591 12.263 117.539 12.0547C117.487 11.8203 117.461 11.651 117.461 11.5469C117.461 11.4688 117.747 11.3906 118.32 11.3125C118.919 11.2344 119.648 11.1693 120.508 11.1172C120.456 9.73698 120.417 8.53906 120.391 7.52344C120.391 6.48177 120.43 5.77865 120.508 5.41406C120.586 4.91927 120.794 4.45052 121.133 4.00781C121.497 3.53906 121.875 3.13542 122.266 2.79688C122.682 2.45833 123.06 2.21094 123.398 2.05469C123.763 1.8724 123.997 1.82031 124.102 1.89844C124.18 1.95052 124.245 2.22396 124.297 2.71875C124.349 3.1875 124.388 3.82552 124.414 4.63281C124.44 5.4401 124.453 6.39062 124.453 7.48438C124.453 8.55208 124.453 9.6849 124.453 10.8828C125.234 10.8307 125.898 10.8177 126.445 10.8438C126.992 10.8438 127.279 10.8698 127.305 10.9219ZM137.07 9.63281C137.253 9.78906 137.422 10.0885 137.578 10.5312C137.76 10.974 137.917 11.5078 138.047 12.1328C138.177 12.7578 138.294 13.4349 138.398 14.1641C138.503 14.8932 138.594 15.6094 138.672 16.3125C138.75 17.0156 138.802 17.6797 138.828 18.3047C138.88 18.9036 138.919 19.3984 138.945 19.7891C138.971 20.2578 138.984 20.7526 138.984 21.2734C139.01 21.7682 139.01 22.25 138.984 22.7188C138.984 23.1615 138.958 23.5651 138.906 23.9297C138.88 24.2943 138.828 24.5677 138.75 24.75C138.594 25.1406 138.32 25.4141 137.93 25.5703C137.565 25.7005 137.148 25.7917 136.68 25.8438C136.445 25.8698 136.042 25.8828 135.469 25.8828C134.922 25.8568 134.323 25.8307 133.672 25.8047C133.047 25.7526 132.448 25.7005 131.875 25.6484C131.302 25.5964 130.872 25.5443 130.586 25.4922C130.013 25.362 129.596 25.1927 129.336 24.9844C129.102 24.776 128.867 24.4766 128.633 24.0859C128.555 23.9297 128.49 23.5391 128.438 22.9141C128.385 22.263 128.346 21.4948 128.32 20.6094C128.32 19.6979 128.333 18.7214 128.359 17.6797C128.385 16.638 128.424 15.6484 128.477 14.7109C128.555 13.7734 128.633 12.9531 128.711 12.25C128.815 11.5469 128.945 11.0781 129.102 10.8438C129.362 10.4792 129.805 10.1406 130.43 9.82812C131.081 9.51562 131.667 9.26823 132.188 9.08594C132.448 9.00781 132.786 8.95573 133.203 8.92969C133.646 8.8776 134.102 8.8776 134.57 8.92969C135.065 8.95573 135.534 9.03385 135.977 9.16406C136.419 9.26823 136.784 9.42448 137.07 9.63281ZM134.883 21.7422C134.935 21.638 134.987 21.3255 135.039 20.8047C135.117 20.2578 135.169 19.6068 135.195 18.8516C135.247 18.0964 135.273 17.2891 135.273 16.4297C135.299 15.5703 135.312 14.776 135.312 14.0469C135.312 13.3177 135.286 12.7057 135.234 12.2109C135.182 11.6901 135.117 11.3906 135.039 11.3125C134.909 11.2083 134.714 11.1693 134.453 11.1953C134.219 11.1953 133.971 11.2344 133.711 11.3125C133.451 11.3646 133.216 11.4427 133.008 11.5469C132.799 11.625 132.656 11.7031 132.578 11.7812C132.24 12.0677 132.057 12.5365 132.031 13.1875C132.031 13.3698 132.005 13.8906 131.953 14.75C131.927 15.5833 131.914 16.4948 131.914 17.4844C131.914 18.4479 131.927 19.3464 131.953 20.1797C132.005 21.013 132.096 21.5208 132.227 21.7031C132.357 21.8854 132.539 22.0286 132.773 22.1328C133.034 22.2109 133.294 22.25 133.555 22.25C133.841 22.25 134.102 22.2109 134.336 22.1328C134.596 22.0286 134.779 21.8984 134.883 21.7422ZM149.57 9.71094C149.779 9.84115 149.974 10.1016 150.156 10.4922C150.365 10.8568 150.547 11.2865 150.703 11.7812C150.885 12.25 151.029 12.7578 151.133 13.3047C151.263 13.8516 151.367 14.3594 151.445 14.8281C151.549 15.2969 151.615 15.7005 151.641 16.0391C151.667 16.3516 151.667 16.5469 151.641 16.625C151.589 16.7292 151.432 16.8333 151.172 16.9375C150.938 17.0417 150.586 17.1589 150.117 17.2891C149.648 17.4193 148.997 17.5625 148.164 17.7188C148.112 16.2865 148.008 15.2057 147.852 14.4766C147.695 13.7214 147.526 13.1875 147.344 12.875C147.135 12.5104 146.914 12.3281 146.68 12.3281C146.445 12.4323 146.237 12.5625 146.055 12.7188C145.872 12.849 145.716 12.9922 145.586 13.1484C145.43 13.3307 145.286 13.526 145.156 13.7344C145.104 13.8125 145.052 13.9948 145 14.2812C144.948 14.5677 144.896 14.9974 144.844 15.5703C144.844 15.7526 144.831 16.1302 144.805 16.7031C144.805 17.276 144.792 17.9401 144.766 18.6953C144.766 19.4505 144.753 20.2448 144.727 21.0781C144.727 21.9115 144.714 22.6927 144.688 23.4219C144.688 24.125 144.674 24.724 144.648 25.2188C144.648 25.7135 144.635 26 144.609 26.0781C144.557 26.2083 144.427 26.3906 144.219 26.625C144.01 26.8594 143.776 27.0807 143.516 27.2891C143.255 27.4714 143.008 27.6276 142.773 27.7578C142.539 27.862 142.383 27.849 142.305 27.7188C142.227 27.6406 142.148 27.3021 142.07 26.7031C141.992 26.1042 141.901 25.375 141.797 24.5156C141.719 23.6302 141.628 22.6667 141.523 21.625C141.419 20.5833 141.328 19.5807 141.25 18.6172C141.172 17.6536 141.107 16.7943 141.055 16.0391C141.003 15.2578 140.964 14.6979 140.938 14.3594C140.911 13.8646 140.885 13.3177 140.859 12.7188C140.833 12.1198 140.807 11.5599 140.781 11.0391C140.781 10.4922 140.781 10.0234 140.781 9.63281C140.807 9.21615 140.859 8.96875 140.938 8.89062C140.99 8.8125 141.159 8.79948 141.445 8.85156C141.758 8.8776 142.083 8.95573 142.422 9.08594C142.786 9.1901 143.125 9.33333 143.438 9.51562C143.75 9.69792 143.958 9.86719 144.062 10.0234C144.141 10.1536 144.219 10.349 144.297 10.6094C144.792 10.349 145.26 10.1146 145.703 9.90625C146.172 9.67188 146.615 9.5026 147.031 9.39844C147.474 9.29427 147.904 9.26823 148.32 9.32031C148.737 9.34635 149.154 9.47656 149.57 9.71094Z" fill="#344054"/>
</svg>
